<?xml version="1.0" standalone="no"?>
<!DOCTYPE svg PUBLIC "-//W3C//DTD SVG 1.1//EN"
  "http://www.w3.org/Graphics/SVG/1.1/DTD/svg11.dtd">
<svg width="297mm" height="132mm" viewBox="-130 63 297 132" xmlns="http://www.w3.org/2000/svg" version="1.1">
	<title>svgOutput</title>
	<desc>made with tinkercad</desc>
<path d="M 166 103.32754516601562 L 158.36378479003906 106.88678741455078 L 151.04055786132812 110.30014038085938 L 148.94773864746094 111.27560424804688 L 120.12857055664062 124.7082290649414 L 117.06548309326172 124.75932312011719 L 86.94474029541016 125.26180267333984 L 16.618574142456055 126.43499755859375 L 16.856491088867188 139.43299865722656 L 22.597047805786133 139.33726501464844 L 28.430452346801758 139.23997497558594 L 28.43046760559082 139.23997497558594 L 33.836849212646484 140.29727172851562 L 33.836849212646484 145.7321319580078 L 17.094274520874023 149.42599487304688 L 17.094280242919922 149.426025390625 L 20.154178619384766 162.093994140625 L 21.563457489013672 161.78306579589844 L 28.49777603149414 160.25314331054688 L 33.836849212646484 161.29727172851562 L 33.836849212646484 164.92881774902344 L 22.154203414916992 170.3740997314453 L 15.672981262207031 173.39500427246094 L 21.636539459228516 185.0800018310547 L 25.294519424438477 183.375 L 29.448116302490234 181.43899536132812 L 29.448261260986328 181.43902587890625 L 33.836849212646484 182.29727172851562 L 33.836849212646484 189.55978393554688 L 27.501707077026367 192.51275634765625 L 25.828065872192383 193.29287719726562 L 24.311050415039062 194 L 15.290660858154297 194 L -107.3553237915039 194 L -107.37642669677734 194 L -117.59806823730469 194 L -119.69064331054688 194 L -129 185.10218811035156 L -129 176.6076202392578 L -129 72.89761352539062 L -121.7876968383789 66.00414276123047 L -119.69071960449219 64 L -107.38546752929688 64 L -107.35450744628906 64 L -51.04607391357422 64 L -40.157867431640625 64 L -3.540034532546997 64 L 15.475757598876953 64 L 151.0399932861328 64 L 151.04055786132812 64 L 155.22500610351562 64 L 158.36378479003906 67.0000228881836 L 159.4079132080078 67.99800109863281 L 158.36378479003906 67.99800109863281 L 158.36378479003906 78.00299835205078 L 165.98765563964844 78.00299835205078 L 166 78.00299835205078 L 166 87.99800109863281 L 158.36378479003906 87.99800109863281 L 158.36378479003906 98.00299835205078 L 166 98.00299835205078 L 166 103.32754516601562 M 151.04055786132812 72.99800109863281 L 148.94773864746094 72.99800109863281 L 148.94773864746094 78.00299835205078 L 151.04055786132812 78.00299835205078 L 151.04055786132812 72.99800109863281 M 151.04055786132812 96.99800109863281 L 148.94773864746094 96.99800109863281 L 148.94773864746094 102.00299835205078 L 151.04055786132812 102.00299835205078 L 151.04055786132812 96.99800109863281 z" fill="none" stroke="rgb(255,0,0)" stroke-width="0.001mm" />
</svg>