<?xml version="1.0" standalone="no"?>
<!DOCTYPE svg PUBLIC "-//W3C//DTD SVG 1.1//EN"
  "http://www.w3.org/Graphics/SVG/1.1/DTD/svg11.dtd">
<svg width="297mm" height="132mm" viewBox="-130 -77 297 132" xmlns="http://www.w3.org/2000/svg" version="1.1">
	<title>svgOutput</title>
	<desc>made with tinkercad</desc>
<path d="M -129 -66.4178695678711 L -118.97468566894531 -76 L -50.338680267333984 -76 L -39.44140625 -76 L -2.827232599258423 -76 L -2.82470440864563 -76 L 16.197002410888672 -76 L 16.198841094970703 -76 L 151.75572204589844 -76 L 155.9407196044922 -76 L 159.07998657226562 -72.99951934814453 L 166 -66.38541412353516 L 166 -62.00299835205078 L 159.07998657226562 -62.00299835205078 L 159.07998657226562 -54.71047592163086 L 159.07998657226562 -51.99800109863281 L 166 -51.99800109863281 L 166 -42.00299835205078 L 159.07998657226562 -42.00299835205078 L 159.07998657226562 -33.11312484741211 L 151.75550842285156 -29.699188232421875 L 149.66270446777344 -28.723726272583008 L 120.844970703125 -15.291772842407227 L 117.7846908569336 -15.240720748901367 L 87.66045379638672 -14.738182067871094 L 17.335134506225586 -13.56500244140625 L 17.33501434326172 -13.5649995803833 L 17.415483474731445 -9.150155067443848 L 17.571693420410156 -0.5669999718666076 L 23.31209945678711 -0.6627375483512877 L 29.145648956298828 -0.7600285410881041 L 34.55308151245117 0.29742395877838146 L 34.55308151245117 5.731923580169678 L 17.80960464477539 9.42597484588623 L 17.80948829650879 9.425999641418457 L 18.85317611694336 13.746355056762695 L 20.869510650634766 22.093975067138672 L 20.869516372680664 22.0939998626709 L 22.278396606445312 21.783157348632812 L 29.213062286376953 20.253154754638672 L 34.55308151245117 21.29742431640625 L 34.55308151245117 24.928911209106445 L 22.869653701782227 30.374561309814453 L 16.389421463012695 33.39500045776367 L 22.3529109954834 45.079872131347656 L 22.352977752685547 45.08000183105469 L 26.009967803955078 43.375450134277344 L 30.16416358947754 41.43914794921875 L 34.55308151245117 42.29742431640625 L 34.55308151245117 49.55885696411133 L 28.216991424560547 52.51252746582031 L 26.54421615600586 53.29231643676758 L 25.026124954223633 54 L 16.00539779663086 54 L -116.88218688964844 54 L -118.97468566894531 54 L -129 44.417869567871094 L -129 37.2923698425293 L -129 -66.4178695678711 M 149.66270446777344 -37.99800109863281 L 151.75550842285156 -37.99800109863281 L 151.75550842285156 -43.00299835205078 L 149.66270446777344 -43.00299835205078 L 149.66270446777344 -37.99800109863281 M 151.75550842285156 -67.00299835205078 L 149.66270446777344 -67.00299835205078 L 149.66270446777344 -61.99800109863281 L 151.75550842285156 -61.99800109863281 L 151.75550842285156 -67.00299835205078 z" fill="none" stroke="rgb(255,0,0)" stroke-width="0.001mm" />
</svg>